<svg xmlns="http://www.w3.org/2000/svg" viewBox="0 0 110.11 110.11"><g id="aa6c522d-ee7c-4a2b-9925-c7b5b0811453" data-name="Layer 2"><g id="f925a4d0-528a-463c-8152-6bc88a862767" data-name="Layer 1"><circle cx="55.06" cy="55.06" r="54.56" style="fill:#e4eae4;stroke:#aabca2;stroke-miterlimit:10"/><path d="M36.39,12.86A16.74,16.74,0,0,0,55,31.06a16.75,16.75,0,0,0-18.59-18.2Z" style="fill:#aabba3"/><path d="M88.07,56.67c0-11.45-5.57-19.23-14.36-23.42C68.44,30.73,62,35.42,55.06,35.41c-6.75,0-13-4.76-18.2-2.38C27.8,37.18,22.05,45,22,56.67c0,13,7.33,27.33,18.44,34.38,4.38,2.78,9.34,1.39,14.58,1.39,5.54,0,10.77,1.19,15.33-1.89C81.08,83.33,88.07,69.37,88.07,56.67Z" style="fill:#f23636"/></g></g></svg>