<svg xmlns="http://www.w3.org/2000/svg" viewBox="0 0 110.11 110.11"><g id="a0eeea13-e18d-4047-b168-bcb7c8fbf3ab" data-name="Layer 2"><g id="ae525875-f541-4fe2-80fe-e839b4aaa416" data-name="Layer 1"><circle cx="55.06" cy="55.06" r="54.56" style="fill:#e4eae4;stroke:#aabca2;stroke-miterlimit:10"/><path d="M21.86,40.44a42.64,42.64,0,0,0,2.24,3.78A41.29,41.29,0,0,0,81.35,55.73a41.43,41.43,0,0,0,10.17-9.61c.55-.73,3.1-3.54,4.87-2.91,1.25.44,2.23,2.55,1.38,6.3a35.45,35.45,0,0,1-1.22,3.6A41.29,41.29,0,0,1,16.4,43c-.16-1.87.22-2.63,2.11-3.18S20.91,38.62,21.86,40.44Z" style="fill:#fffb7d;stroke:#93774e;stroke-miterlimit:10;stroke-width:0.5px"/><path d="M19.92,27.38C21.43,27,21.43,28,21,30c-.78,3.87-1.24,5.56.17,9.17-1.25,1-3.09.5-4.48,1.55.46-.35.45-4.42.44-5.06,0-2.66-1-4.61-1.95-7-.77-2,1.09-.26,2.68-1.12C17.93,27.51,19.88,27.39,19.92,27.38Z" style="fill:#fffb7d;stroke:#93774e;stroke-miterlimit:10;stroke-width:0.5px"/><path d="M15.15,28.09a25.55,25.55,0,0,0,2,1.73c.63.33,1.1-.42,2-.67.76-.21,1.76.3,2.14-.88.59-1.86-6.74-1.4-6.07,0,.12,0-.22,0,.13-.1" style="fill:#fffb7d;stroke:#93774e;stroke-miterlimit:10;stroke-width:0.5px"/><path d="M95.69,44.68c.31.11,1.54-.29,1.88-.1,1,.59,1,1.93.34,4.74-.27,1.21-.83,2.77-1.23,4A41.29,41.29,0,0,1,16.53,43.18c-.16-1.87-.71-2.42,1.18-3,.08,0,2.65,6.64,2.91,7.37a23,23,0,0,0,4.94,8c4.84,4.87,9.44,10.72,16,13.21,7.05,2.68,15.6,3,23.07,2.53,6.73-.47,15.64-5.17,20.68-9.76C90.93,56.51,93.39,51.51,95.69,44.68Z" style="fill:#d8d36f"/><path d="M21.83,40.44a40.24,40.24,0,0,0,2.23,3.78A41.29,41.29,0,0,0,81.31,55.73a41,41,0,0,0,7.57-6.48,38.51,38.51,0,0,0,2.6-3.13c.55-.73,3.11-3.54,4.87-2.91,1.25.44,2.23,2.56,1.38,6.3a33.14,33.14,0,0,1-1.22,3.6A41.29,41.29,0,0,1,16.36,43c-.15-1.87.22-2.63,2.11-3.17S20.87,38.62,21.83,40.44Z" style="fill:none;stroke:#93774e;stroke-miterlimit:10;stroke-width:0.5px"/><path d="M17,30c.18,1.82,1.11,4,1.23,5.83.09,1.31-.44,3.12-.22,4.1A41.31,41.31,0,0,0,81.21,65.24c8.17-5.44,12.81-13.32,15.53-22" style="fill:none;stroke:#93774e;stroke-miterlimit:10;stroke-width:0.5px"/><path d="M94.39,43.82c.08.07,1,1,1.2,1.15.36.24.56-.17,1-.26s1,.3,1.09-.38c.2-1.06-3.71-1.28-3.25-.41.06,0-.12,0,.06-.05" style="fill:#fffb7d;stroke:#93774e;stroke-miterlimit:10;stroke-width:0.5px"/><path d="M18.14,41.8a47.55,47.55,0,0,0,1,4.72,45.46,45.46,0,0,0,66,27.56A44.69,44.69,0,0,0,89,71.7c.82-.57,4.46-2.63,6.09-1.36,1.15.89,1.45,3.43-.72,7a39.19,39.19,0,0,1-2.53,3.35A45.42,45.42,0,0,1,11.54,42.62c.48-2,1.14-2.68,3.3-2.59S17.78,39.57,18.14,41.8Z" style="fill:#fffb7d;stroke:#93774e;stroke-miterlimit:10;stroke-width:0.5px"/><path d="M20.61,27.48c1.71.11,1.37,1.13.26,3.09-2.15,3.78-3.2,5.38-3,9.64-1.65.61-3.41-.55-5.21.08.59-.21,2-4.47,2.19-5.14.89-2.79.53-5.16.37-8-.12-2.33,1.22.1,3.19-.25C18.48,26.93,20.57,27.48,20.61,27.48Z" style="fill:#fffb7d;stroke:#93774e;stroke-miterlimit:10;stroke-width:0.5px"/><path d="M15.37,26.58c.1.17,1.22,2.19,1.51,2.5.54.56,1.3-.06,2.36,0,.87,0,1.73.92,2.53-.18,1.26-1.75-6.56-3.79-6.34-2.1.13,0-.23-.08.17-.06" style="fill:#fffb7d;stroke:#93774e;stroke-miterlimit:10;stroke-width:0.5px"/><path d="M93.82,71.63c.29.23,1.72.23,2,.55.83.95.36,2.35-1.27,5.06a44.35,44.35,0,0,1-2.65,3.7A45.42,45.42,0,0,1,11.63,42.82c.48-2,.09-2.77,2.25-2.68.09,0,.48,7.85.5,8.69a25.32,25.32,0,0,0,2.4,10.1C20.16,65.68,23,73.37,29,78.24c6.45,5.23,15.25,8.56,23.23,10.59,7.2,1.82,18.13,0,25-3.08C84.78,82.35,89.07,78,93.82,71.63Z" style="fill:#d8d36f"/><path d="M18.1,41.79a46.75,46.75,0,0,0,1,4.71A45.42,45.42,0,0,0,75,78.23a46,46,0,0,0,10.15-4.16,44.69,44.69,0,0,0,3.79-2.38c.82-.57,4.46-2.63,6.09-1.37,1.15.9,1.45,3.44-.72,7.06a40.83,40.83,0,0,1-2.53,3.35A45.42,45.42,0,0,1,11.5,42.61c.48-2,1.14-2.68,3.3-2.59S17.74,39.55,18.1,41.79Z" style="fill:none;stroke:#93774e;stroke-miterlimit:10;stroke-width:0.5px"/><path d="M16.7,29.23c-.45,2-.23,4.6-.72,6.51-.36,1.4-1.54,3.11-1.65,4.21A45.45,45.45,0,0,0,71.61,88.13c10.42-2.87,18-9.5,23.81-17.64" style="fill:none;stroke:#93774e;stroke-miterlimit:10;stroke-width:0.5px"/><path d="M92.76,70.29c.06.1.7,1.41.86,1.61.29.37.65,0,1.18.09s.9.64,1.27,0c.56-1-3.44-2.62-3.27-1.55.07,0-.12,0,.09,0" style="fill:#fffb7d;stroke:#93774e;stroke-miterlimit:10;stroke-width:0.5px"/></g></g></svg>