<svg xmlns="http://www.w3.org/2000/svg" viewBox="0 0 110.11 110.11"><g id="a94280b7-f0f6-4fef-b027-a499e0bb2314" data-name="Layer 2"><g id="bbbf6244-b935-41fe-a3aa-f3fc4b05dd49" data-name="Layer 1"><circle cx="55.06" cy="55.06" r="54.56" style="fill:#e4eae4;stroke:#aabca2;stroke-miterlimit:10"/><path d="M92.92,48.42a11.74,11.74,0,0,1,2.86.37V32.2H13.87v8.39a7.61,7.61,0,1,1,0,10.15V82H30.4a10,10,0,1,1,18.66,0H95.78V71.46a11.7,11.7,0,1,1-2.86-23Z" style="fill:#efc062"/><path d="M39.44,70a10,10,0,0,1,10,10,8.85,8.85,0,0,1-.05.89,10,10,0,1,0-19.49-3.94A10,10,0,0,1,39.44,70Z" style="fill:#c4a057"/><circle cx="44.95" cy="45.23" r="5.87" style="fill:#c4a057"/><path d="M19.87,38h-.29a7.64,7.64,0,0,1-1.52,15.06A7.64,7.64,0,1,0,19.87,38Z" style="fill:#a38857"/><path d="M85.57,59.66a11.69,11.69,0,0,1,8.37-11.21c-.33,0-.67-.05-1-.05a11.7,11.7,0,0,0,0,23.4,11.81,11.81,0,0,0,3.33-.49A11.69,11.69,0,0,1,85.57,59.66Z" style="fill:#c4a057"/><circle cx="45.1" cy="45.2" r="4.5" style="fill:#a38857"/><polygon points="13.87 32.42 95.78 32.42 26.46 28.07 13.87 32.42" style="fill:#f4d295"/><circle cx="64.2" cy="69.37" r="4.16" style="fill:#c4a057"/><circle cx="63.79" cy="68.99" r="2.78" style="fill:#a38857"/></g></g></svg>