<svg xmlns="http://www.w3.org/2000/svg" viewBox="0 0 59.2 44.43"><g id="abc70435-9332-42c2-9870-a87c622cbcc3" data-name="Layer 2"><g id="eca09bec-e74a-47d9-8b30-a841c1378051" data-name="Layer 1"><path d="M53,12C49.74,9.52,42.51,2.65,39.89,1.13,36.22-1,31.74.32,27.18,1.38,24.61,2,17.5,3.9,14.39,5S.14,10,.06,12.84L0,36.35a2.49,2.49,0,0,0,2.49,2.42c3.05.15,14.5,1.45,24.6,2.59A1.55,1.55,0,0,0,28.8,40a3.25,3.25,0,0,1,6.48.36c0,.06,0,.12,0,.18l0,.18a1.56,1.56,0,0,0,.33,1.14,1.51,1.51,0,0,0,1,.57c8.11.91,16.79,1.86,19.64,2h.13a2.79,2.79,0,0,0,1.92-.77A2.25,2.25,0,0,0,59,42v-.19c0-1.72,0-5.22,0-9a1.55,1.55,0,0,0-1.54-1.54,2.49,2.49,0,1,1,0-5A1.54,1.54,0,0,0,59,24.78v-.4c.4,0,.09-5.11,0-5.49C58.13,16.77,56.75,15.47,53,12Z" style="fill:#3c4142"/><path d="M53.39,17.29,6,12.72C17.49,6.05,34.71,3.9,34.89,3.88A4.7,4.7,0,0,1,38.8,4.94a.86.86,0,0,0,.14.13Z" style="fill:#edb564"/><path d="M51.84,28.81a5.6,5.6,0,0,0,4.08,5.35c0,2.91,0,5.55,0,7.15-3-.18-10.38-1-17.62-1.79A6.35,6.35,0,0,0,26.1,38.14c-11.41-1.29-19.8-2.22-23-2.43V15.55l52.82,5.08c0,.75,0,1.72,0,2.82A5.62,5.62,0,0,0,51.84,28.81Z" style="fill:#f2c377"/><path d="M37.89,21.06a5,5,0,1,0,5,5A5,5,0,0,0,37.89,21.06Z" style="fill:#3c4142"/><path d="M37.89,27.87A1.86,1.86,0,1,1,39.8,26,1.89,1.89,0,0,1,37.89,27.87Z" style="fill:#f2c377"/><path d="M16,21.8a6,6,0,1,0,6.07,6A6,6,0,0,0,16,21.8Z" style="fill:#3c4142"/><path d="M16,30.74a2.93,2.93,0,1,1,3-2.93A3,3,0,0,1,16,30.74Z" style="fill:#f2c377"/></g></g></svg>