<svg xmlns="http://www.w3.org/2000/svg" viewBox="0 0 65.13 131.15"><g id="b1884742-a0a7-4f73-8e0b-ff1bb090a0de" data-name="Layer 2"><g id="b1bb6d11-00dd-4c2d-aac1-ebbbfc90a94e" data-name="Layer 1"><path d="M55.12,29.19a12.5,12.5,0,0,1-3.94-6.85,6.81,6.81,0,0,0,4.09-1,4.29,4.29,0,0,0,2-3,4.06,4.06,0,0,0-1.07-3.22l-1.57-1.75a7,7,0,0,0,4.71-2.51,1.57,1.57,0,0,0,.15-2A1.54,1.54,0,0,0,57,8.78,4.12,4.12,0,0,1,52.17,10V6.12C52.17,1.29,39.93,0,32.7,0S13.24,1.29,13.24,6.12v4.54l-4,4.46a4.06,4.06,0,0,0-1.07,3.22,4.26,4.26,0,0,0,2,3,6.79,6.79,0,0,0,4.08,1,12.45,12.45,0,0,1-3.94,6.85C.12,38.78.22,49.4.32,59.67c0,1,0,27,0,27.94,0,8.43-1.2,17.11.93,25.39,1.63,6.34,4.45,11.21,9.66,14.46,6,3.75,17.35,3.69,24.32,3.69,9.14,0,18.1-.91,21.94-3.47,9.12-6.08,7.88-29.53,7.88-40.07,0-1,0-27,0-27.94C65.18,49.4,65.28,38.78,55.12,29.19Z" style="fill:#263135"/><path d="M16.33,9.7c4.1,1.94,11.41,2.55,16.37,2.55S45,11.64,49.08,9.7v.93c-.12.17-1,1.11-4.78,2a54.83,54.83,0,0,1-11.6,1.12,54.73,54.73,0,0,1-11.59-1.12c-3.83-.88-4.66-1.82-4.78-2Z" style="fill:#b17f4a"/><path d="M21.11,4.21A54.73,54.73,0,0,1,32.7,3.09,54.83,54.83,0,0,1,44.3,4.21C47.73,5,48.75,5.84,49,6.12c-.27.29-1.29,1.13-4.72,1.92A54.83,54.83,0,0,1,32.7,9.16,54.73,54.73,0,0,1,21.11,8c-3.43-.79-4.46-1.63-4.72-1.92C16.65,5.84,17.68,5,21.11,4.21Z" style="fill:#ede6dd"/><path d="M11.87,18.82a1.31,1.31,0,0,1-.63-.85,1,1,0,0,1,.31-.79l3.34-3.74c3.58,2.61,12.2,3.39,17.81,3.39s14.23-.78,17.81-3.39l3.35,3.74a1,1,0,0,1,.3.79,1.29,1.29,0,0,1-.62.85c-1.13.76-3.7.42-6.94-.11a1.52,1.52,0,0,0-1.38.47,8.38,8.38,0,0,1-11.58.59,1.53,1.53,0,0,0-1.78-.07c-7.18,4.68-11.44-.24-11.61-.45a1.54,1.54,0,0,0-1.45-.54C15.56,19.24,13,19.58,11.87,18.82Z" style="fill:#ede6dd"/><path d="M12.4,31.44a15.29,15.29,0,0,0,5-9.39l1.11-.17c2.4,2.31,7.61,4.73,14.15,1A11.59,11.59,0,0,0,39.15,25a11.78,11.78,0,0,0,7.73-3.07l1.15.17a15.34,15.34,0,0,0,5,9.39,30.78,30.78,0,0,1,3,3.25c-5.73-2.11-14.71-3.11-23.3-3.11s-17.56,1-23.3,3.11A31.88,31.88,0,0,1,12.4,31.44Z" style="fill:#dfeff2"/><path d="M32.7,34.66c17,0,26.29,3.68,26.29,5.57s-9.28,5.58-26.29,5.58S6.42,42.13,6.42,40.23,15.69,34.66,32.7,34.66Z" style="fill:#fff"/><path d="M62,59.64c0,1,0,27,0,28,0,14.28,2.1,29.31-6.09,37-4.37,4.11-13,3.79-21.94,3.69-11.13-.13-19.25-.93-24.42-6.57-6.29-6.88-5.94-14-6.2-22.68-.07-2.2.09-10,.09-11.47,0-1,0-27,0-28,0-5.64-.1-11.11,1.49-16.35,4.23,3.83,16.37,5.6,27.81,5.6s23.59-1.77,27.82-5.6C62.11,48.53,62.05,54,62,59.64Z" style="fill:#fff"/></g></g></svg>