<svg xmlns="http://www.w3.org/2000/svg" viewBox="0 0 110.11 110.11"><g id="b2c8df7b-c5fb-44a6-868e-36bbc06a2834" data-name="Layer 2"><g id="e1ee97a4-99d0-4501-a142-bc25eebbe61d" data-name="Layer 1"><circle cx="55.06" cy="55.06" r="54.56" style="fill:#e4eae4;stroke:#aabca2;stroke-miterlimit:10"/><path d="M84.81,25.28h-.13a2.28,2.28,0,0,0,0-.45c0-5.07-13.28-9.18-29.66-9.18s-29.67,4.11-29.67,9.18a3.42,3.42,0,0,0,0,.45H25.3l8.49,68.47s0,.11,0,.16c0,3.63,9.52,6.58,21.28,6.58s21.28-2.95,21.28-6.58a.88.88,0,0,0,0-.16Z" style="fill:#dae0e0;stroke:#91b7bc;stroke-miterlimit:10"/><ellipse cx="55.06" cy="24.8" rx="29.66" ry="9.18" style="fill:none;stroke:#91b7bc;stroke-miterlimit:10"/><path d="M31.09,45l6,44.43s0,.08,0,.13c0,3.11,8.16,5.64,18.22,5.64s18.23-2.53,18.23-5.64c0,0,0-.09,0-.13L79.19,44.1" style="fill:#f2f2f2;stroke:#91b7bc;stroke-miterlimit:10"/><ellipse cx="55.06" cy="44.3" rx="24.14" ry="7.47" style="fill:#fff;stroke:#91b7bc;stroke-miterlimit:10"/></g></g></svg>