<svg xmlns="http://www.w3.org/2000/svg" viewBox="0 0 494.92 148.3"><g id="b0d0b253-5066-4275-923b-7613c5c3361c" data-name="Layer 2"><g id="f6718eed-ef48-4ecd-a292-631b2807c1e0" data-name="Layer 1"><path d="M217.11,76.29a31.67,31.67,0,0,1,31.6,31.7v6.6a31.67,31.67,0,0,1-31.6,31.7h-9.6v-70Zm19.3,38.3V108a19.37,19.37,0,0,0-16.5-19.1v44.8a19.37,19.37,0,0,0,16.5-19.1Z" style="fill:#53694a"/><path d="M291.26,115.83l6-39.5h12.5l-11.3,70H284l-5.2-32.4-5.3,32.4h-14.4l-11.4-70h12.5l6.1,39.5,6-39.5h12.9Z" style="fill:#53694a"/><path d="M314.87,76.76h14.5l12,70h-12.5l-1.2-6.7h-11.1l-1.2,6.7h-12.5Zm11,53-3.7-24.1-3.8,24.1Z" style="fill:#53694a"/><path d="M405.78,88.94V76.54h37.4v12.4h-12.5v57.6h-12.4V88.94Z" style="fill:#53694a"/><path d="M446.92,146.11v-70h48v12.4h-35.6v10.1h34V111h-34v22.7h35.4v12.4Z" style="fill:#53694a"/><path d="M37.3,12.13l-23.2,46H37.3v12.4H0v-12l23.1-45.7H0V.53H37.3Z" style="fill:#53694a"/><path d="M41.1,70.53V.53h90v12.4H53.5V23h76v12.4h-76v22.7h77.4v12.4Z" style="fill:#53694a"/><path d="M183.89,5.9a19.6,19.6,0,0,1,14-5.9H474.5a19.45,19.45,0,0,1,14,5.9,19.48,19.48,0,0,1,5.9,14.3v30a19.55,19.55,0,0,1-5.9,14.25,19.28,19.28,0,0,1-14.24,6H198.24a20.32,20.32,0,0,1-20.3-20.2v-30A19.37,19.37,0,0,1,183.89,5.9ZM482.14,50.2v-30a7.59,7.59,0,0,0-2.35-5.55,7.67,7.67,0,0,0-5.54-2.35H198.19a7.46,7.46,0,0,0-5.55,2.35,7.7,7.7,0,0,0-2.3,5.55v30a7.7,7.7,0,0,0,2.3,5.55,7.49,7.49,0,0,0,5.48,2.35H474.24a8,8,0,0,0,7.9-7.9Z" style="fill:#53694a"/><path d="M159.23,82a19.6,19.6,0,0,1,14-5.9h10.57a20.15,20.15,0,0,1,19.94,20.2v30a19.55,19.55,0,0,1-5.9,14.25,19.32,19.32,0,0,1-14.25,5.95h-10a20.32,20.32,0,0,1-20.3-20.2v-30A19.37,19.37,0,0,1,159.23,82Zm32.25,44.3v-30a8,8,0,0,0-7.89-7.9H173.53A7.46,7.46,0,0,0,168,90.75a7.62,7.62,0,0,0-2.3,5.55v30a7.66,7.66,0,0,0,2.3,5.55,7.47,7.47,0,0,0,5.48,2.35h10.12a8,8,0,0,0,7.9-7.9Z" style="fill:#53694a"/><path d="M.1,146.22v-70H68.5v12.4h-56v14.2H65.1v12.4H12.5v31Z" style="fill:#53694a"/><path d="M394.58,110.6c.36.18.72.37,1.08.58a8.58,8.58,0,0,1,2.14,1.8,18.69,18.69,0,0,1,1.76,2.28,20.9,20.9,0,0,1,1.06,1.84,18.36,18.36,0,0,1,1.94,8.28V130a18.37,18.37,0,0,1-18.34,18.34H362.5A18.37,18.37,0,0,1,344.16,130V119h12.36v11a5.94,5.94,0,0,0,6,6h21.67a6.17,6.17,0,0,0,4-1.44A5.77,5.77,0,0,0,390.3,130v-4.58a5.66,5.66,0,0,0-1.54-4.06,4.18,4.18,0,0,0-1.07-.75c-.54-.23-1-.45-1.55-.64l-4.37-1.46-6.07-2-6.79-2.28L362.38,112l-9.4-3.15a7.66,7.66,0,0,1-1.32-.55A12.21,12.21,0,0,1,348,105a18,18,0,0,1-1.9-3,18.66,18.66,0,0,1-1.84-6.27,18.06,18.06,0,0,1-.1-2v-.43a19.78,19.78,0,0,1,.19-2.34A18.42,18.42,0,0,1,362.5,75.35h21.22a18.37,18.37,0,0,1,18.34,18.34v6.37H389.7V93.69a5.94,5.94,0,0,0-6-6H362.5a6,6,0,0,0-5.78,4.36,6.67,6.67,0,0,0-.2,1.3v.32a6.4,6.4,0,0,0,.27,1.89A5.72,5.72,0,0,0,358.34,98a2.88,2.88,0,0,0,1.09.65l1.13.38.43.14,1.2.41,1.87.62,2.39.81,2.81.94,3.1,1,3.26,1.09,3.31,1.11,3.23,1.08,3,1,2.7.9,2.27.76,1.69.57,1,.34a11.27,11.27,0,0,1,1.24.53Z" style="fill:#53694a"/><path d="M174.3,22.63a21.29,21.29,0,0,1-4.85,13.8,22,22,0,0,1-12.25,7.8l17.1,26.3H159.6l-12.3-18.9v18.9H134.9V.53h17.3A21.24,21.24,0,0,1,167.8,7,21.24,21.24,0,0,1,174.3,22.63Zm-15.25,7a9.4,9.4,0,0,0,2.85-6.9,9.4,9.4,0,0,0-2.85-6.9,9.33,9.33,0,0,0-6.85-2.85h-4.9v19.5h4.9A9.33,9.33,0,0,0,159.05,29.58Z" style="fill:#53694a"/><path d="M75,82a19.6,19.6,0,0,1,14-5.9H129.6a20.15,20.15,0,0,1,20,20.2v30a19.55,19.55,0,0,1-5.9,14.25,19.35,19.35,0,0,1-14.25,5.95H89.35a20.32,20.32,0,0,1-20.3-20.2v-30A19.37,19.37,0,0,1,75,82Zm62.25,44.3v-30a8,8,0,0,0-7.89-7.9H89.3a7.46,7.46,0,0,0-5.55,2.35,7.62,7.62,0,0,0-2.3,5.55v30a7.66,7.66,0,0,0,2.3,5.55,7.47,7.47,0,0,0,5.47,2.35h40.13a7.71,7.71,0,0,0,5.55-2.35A7.63,7.63,0,0,0,137.25,126.28Z" style="fill:#53694a"/></g></g></svg>