<svg xmlns="http://www.w3.org/2000/svg" viewBox="0 0 672.44 201.49"><g id="ea82ef89-5139-42d4-81a7-bd5b4cdd0333" data-name="Layer 2"><g id="af7a3273-6196-4642-b711-4606e7ba0795" data-name="Layer 1"><path d="M295,103.66a43,43,0,0,1,42.93,43.07v9A43,43,0,0,1,295,198.76H282v-95.1Zm26.22,52v-9a26.32,26.32,0,0,0-22.42-26v60.87a26.3,26.3,0,0,0,22.42-25.95Z" style="fill:#9e9e9e"/><path d="M395.73,157.37l8.16-53.67h17l-15.35,95.11h-19.7l-7.07-44-7.2,44H352L336.49,103.7h17l8.29,53.67,8.15-53.67h17.53Z" style="fill:#9e9e9e"/><path d="M427.81,104.29h19.7l16.31,95.11h-17l-1.63-9.1H430.12l-1.63,9.1h-17Zm14.95,72-5-32.74-5.16,32.74Z" style="fill:#9e9e9e"/><path d="M551.32,120.85V104h50.82v16.85h-17v78.26H568.31V120.85Z" style="fill:#9e9e9e"/><path d="M607.22,198.52V103.41h65.22v16.85H624.07V134h46.19v16.85H624.07v30.84h48.1v16.85Z" style="fill:#9e9e9e"/><path d="M50.68,16.48,19.16,79H50.68V95.82H0V79.52L31.39,17.43H0V.71H50.68Z" style="fill:#9e9e9e"/><path d="M55.84,95.82V.71H178.12V17.56H72.69V31.29H176V48.13H72.69V79H177.85V95.82Z" style="fill:#9e9e9e"/><path d="M249.85,8a26.64,26.64,0,0,1,19.07-8H644.69a26.43,26.43,0,0,1,19.08,8,26.43,26.43,0,0,1,8,19.43V68.21a26.5,26.5,0,0,1-8,19.36,26.21,26.21,0,0,1-19.35,8.08H269.35a27.6,27.6,0,0,1-27.59-27.44V27.45A26.34,26.34,0,0,1,249.85,8ZM655.08,68.21V27.45a10.3,10.3,0,0,0-3.2-7.54,10.36,10.36,0,0,0-7.52-3.2H269.28a10.15,10.15,0,0,0-7.54,3.2,10.38,10.38,0,0,0-3.13,7.54V68.21a10.4,10.4,0,0,0,3.13,7.54,10.16,10.16,0,0,0,7.44,3.19H644.34a10.91,10.91,0,0,0,10.74-10.73Z" style="fill:#9e9e9e"/><path d="M216.34,111.41a26.65,26.65,0,0,1,19.08-8h14.36a27.37,27.37,0,0,1,27.09,27.45V171.6a26.53,26.53,0,0,1-8,19.36A26.18,26.18,0,0,1,249.5,199H235.84a27.59,27.59,0,0,1-27.58-27.44V130.84A26.33,26.33,0,0,1,216.34,111.41Zm43.82,60.19V130.84a10.91,10.91,0,0,0-10.71-10.74H235.77a10.17,10.17,0,0,0-7.54,3.2,10.43,10.43,0,0,0-3.12,7.54V171.6a10.43,10.43,0,0,0,3.12,7.54,10.16,10.16,0,0,0,7.44,3.19h13.76a10.9,10.9,0,0,0,10.73-10.73Z" style="fill:#9e9e9e"/><path d="M.13,198.66v-95.1H93.07V120.4H17v19.3H88.45v16.85H17v42.11Z" style="fill:#9e9e9e"/><path d="M536.11,150.27c.5.25,1,.51,1.46.78a11.85,11.85,0,0,1,2.91,2.46,23.81,23.81,0,0,1,2.39,3.09A25.06,25.06,0,0,1,547,170.35v6.23A25,25,0,0,1,522,201.49H492.52a25,25,0,0,1-24.91-24.91v-14.9H484.4v14.9a8.08,8.08,0,0,0,8.12,8.12H522a8.38,8.38,0,0,0,5.45-2,7.79,7.79,0,0,0,2.89-6.16v-6.23a7.72,7.72,0,0,0-2.1-5.52,5.57,5.57,0,0,0-1.46-1c-.73-.31-1.34-.62-2.1-.87l-5.93-2-8.25-2.76-9.23-3.09-8.86-3-12.79-4.28a11.63,11.63,0,0,1-1.79-.74,16.81,16.81,0,0,1-5-4.51,24.28,24.28,0,0,1-2.58-4.14,24.91,24.91,0,0,1-2.5-8.51,23.58,23.58,0,0,1-.14-2.66v-.58a27.3,27.3,0,0,1,.25-3.17,25.07,25.07,0,0,1,24.66-21.17h28.84a25,25,0,0,1,24.91,24.92V136H529.48v-8.67a8.08,8.08,0,0,0-8.12-8.12H492.52a7.87,7.87,0,0,0-5.76,2.36,8,8,0,0,0-2.09,3.56,7.79,7.79,0,0,0-.26,1.77c0,.14,0,.28,0,.43a8.61,8.61,0,0,0,.37,2.58,7.42,7.42,0,0,0,1.32,2.44,8.71,8.71,0,0,0,.78.83,4.07,4.07,0,0,0,1.48.89l1.53.51.59.19,1.64.55,2.53.85,3.25,1.09,3.82,1.28,4.2,1.41,4.44,1.49,4.49,1.5,4.39,1.47,4.12,1.38L527,147l3.08,1,2.31.77,1.37.46c.58.2,1.12.47,1.68.72C535.68,150.06,535.9,150.17,536.11,150.27Z" style="fill:#9e9e9e"/><path d="M236.82,30.74a28.92,28.92,0,0,1-6.59,18.75,30,30,0,0,1-16.64,10.6l23.23,35.73h-20L200.14,70.14V95.82H183.29V.71H206.8A28.9,28.9,0,0,1,228,9.55,28.89,28.89,0,0,1,236.82,30.74ZM216.1,40.18A12.77,12.77,0,0,0,220,30.81a12.8,12.8,0,0,0-3.88-9.38,12.68,12.68,0,0,0-9.3-3.87h-6.66v26.5h6.66A12.65,12.65,0,0,0,216.1,40.18Z" style="fill:#9e9e9e"/><path d="M101.9,111.38a26.6,26.6,0,0,1,19.07-8h55.12a27.37,27.37,0,0,1,27.1,27.44v40.76a26.54,26.54,0,0,1-8,19.36A26.22,26.22,0,0,1,175.82,199H121.39a27.62,27.62,0,0,1-27.58-27.45V130.81A26.36,26.36,0,0,1,101.9,111.38Zm84.57,60.19V130.81a10.9,10.9,0,0,0-10.71-10.73H121.33a10.18,10.18,0,0,0-7.55,3.19,10.43,10.43,0,0,0-3.12,7.54v40.76a10.43,10.43,0,0,0,3.12,7.54,10.13,10.13,0,0,0,7.45,3.19h54.51a10.9,10.9,0,0,0,10.73-10.73Z" style="fill:#9e9e9e"/></g></g></svg>